# xmcd CD database file
#
# Track frame offsets:
#	150
#	18955
#	47995
#
# Disc length: 1099 seconds
#
# Revision: 0
# Processed by: cddbd v1.5.1PL2 Copyright (c) Steve Scherf et al.
# Submitted via: CDex 1.51
#
DISCID=1d044903
DTITLE=Ben Watt - Outspoken Part 1 (Single)
DYEAR=2005
DGENRE=Rock
TTITLE0=Ben Watt Feat. Estelle - Pop A Cap In Yo' Ass (Edit)
TTITLE1=Ben Watt Feat. Estelle - Pop A Cap In Yo' Ass (Full Mix)
TTITLE2=Ben Watt feat. Baby Blak - Attack, Attack, Attack
EXTD=YEAR: 2005
EXTT0=
EXTT1=
EXTT2=
PLAYORDER=
